<svg xmlns="http://www.w3.org/2000/svg" aria-hidden="true" style="position:absolute;width:0;height:0;overflow:hidden">
<defs>
<symbol id="icon-active-heart" viewBox="0 0 32 32">
<path d="M16 3.628C24.876-5.496 47.068 10.47 16 31-15.068 10.472 7.124-5.496 16 3.628z"/>
</symbol>
<symbol id="icon-calendar" viewBox="0 0 32 32">
<path d="M7 0a.997.997 0 0 1 1 1v1h16V1a.997.997 0 0 1 1-1 .997.997 0 0 1 1 1v1h2a4.003 4.003 0 0 1 4 4v22a4.003 4.003 0 0 1-4 4H4a4.003 4.003 0 0 1-4-4V6a4.003 4.003 0 0 1 4-4h2V1a.997.997 0 0 1 1-1zM4 4a2 2 0 0 0-2 2v22a2 2 0 0 0 2 2h24a2 2 0 0 0 2-2V6a2 2 0 0 0-2-2H4z"/><path d="M5 8a.997.997 0 0 1 1-1h20a.997.997 0 0 1 1 1v2a.997.997 0 0 1-1 1H6a.997.997 0 0 1-1-1V8zm17 7a.997.997 0 0 1 1-1h2a.997.997 0 0 1 1 1v2a.997.997 0 0 1-1 1h-2a.997.997 0 0 1-1-1v-2zm-6 0a.997.997 0 0 1 1-1h2a.997.997 0 0 1 1 1v2a.997.997 0 0 1-1 1h-2a.997.997 0 0 1-1-1v-2zM6 21a.997.997 0 0 1 1-1h2a.997.997 0 0 1 1 1v2a.997.997 0 0 1-1 1H7a.997.997 0 0 1-1-1v-2zm6 0a.997.997 0 0 1 1-1h2a.997.997 0 0 1 1 1v2a.997.997 0 0 1-1 1h-2a.997.997 0 0 1-1-1v-2z"/>
</symbol>
<symbol id="icon-car" viewBox="0 0 32 32">
<path d="M8 18a2 2 0 1 1-4.001-.001A2 2 0 0 1 8 18zm20 0a2 2 0 1 1-4.001-.001A2 2 0 0 1 28 18zm-16-2a2 2 0 0 0 0 4h8a2 2 0 0 0 0-4h-8zM9.724 8.552 7.812 12.38a1.02 1.02 0 0 0 .994 1.461c1.82-.146 4.7-.34 7.194-.34s5.376.194 7.194.34a1.018 1.018 0 0 0 .994-1.461l-1.912-3.826A1.002 1.002 0 0 0 21.382 8H10.618a1.002 1.002 0 0 0-.894.552z"/>
<path d="M5.04 7.03A5.002 5.002 0 0 1 9.64 4h12.724a5 5 0 0 1 4.596 3.03l1.584 3.696c.15.35.42.638.76.808 1 .5 1.71 1.43 1.93 2.524l.67 3.358c.067.323.099.649.098.98v.826a4.97 4.97 0 0 1-2 3.994V27a.997.997 0 0 1-1 1h-4a.997.997 0 0 1-1-1v-2.676c-2.584.096-5.49.176-8 .176s-5.416-.08-8-.176V27a.997.997 0 0 1-1 1h-4a.997.997 0 0 1-1-1v-3.784a4.97 4.97 0 0 1-2-3.994v-.826c0-.329.033-.657.098-.98l.67-3.36a3.615 3.615 0 0 1 1.928-2.522 1.6 1.6 0 0 0 .762-.808L5.044 7.03H5.04zM9.64 6a3.004 3.004 0 0 0-2.758 1.82l-1.584 3.694a3.602 3.602 0 0 1-1.706 1.808 1.606 1.606 0 0 0-.86 1.128l-.672 3.358c-.039.194-.059.39-.06.588v.826a2.959 2.959 0 0 0 2.816 2.968c3.11.14 7.572.31 11.184.31s8.074-.168 11.184-.31A2.957 2.957 0 0 0 30 19.222v-.826c0-.197-.02-.393-.06-.588l-.67-3.36a1.611 1.611 0 0 0-.86-1.126 3.602 3.602 0 0 1-1.706-1.808L25.12 7.818A3.006 3.006 0 0 0 22.36 6H9.64z"/>
</symbol>
<symbol id="icon-check-circle" viewBox="0 0 32 32">
<path d="M16 30A14.002 14.002 0 0 1 2 16a13.998 13.998 0 1 1 23.899 9.899A13.996 13.996 0 0 1 16 30zm0 2a15.997 15.997 0 0 0 16-16A15.997 15.997 0 0 0 16 0 15.997 15.997 0 0 0 0 16a15.997 15.997 0 0 0 16 16z"/>
<path d="m21.94 9.94-.04.044-6.946 8.85-4.186-4.188a1.497 1.497 0 0 0-2.083.037 1.5 1.5 0 0 0-.037 2.083l5.292 5.294a1.482 1.482 0 0 0 1.087.438 1.51 1.51 0 0 0 1.071-.478l7.984-9.98a1.502 1.502 0 0 0-1.09-2.535 1.498 1.498 0 0 0-1.052.435z"/>
</symbol>
<symbol id="icon-chevron-down" viewBox="0 0 32 32">
<path d="M.362 7.746a1.218 1.218 0 0 1 .872-.362 1.234 1.234 0 0 1 .872.362l13.898 13.9 13.898-13.9a1.231 1.231 0 0 1 1.744 0 1.23 1.23 0 0 1 0 1.744L16.877 24.259a1.218 1.218 0 0 1-.872.362 1.234 1.234 0 0 1-.872-.362L.364 9.49a1.218 1.218 0 0 1-.362-.872 1.234 1.234 0 0 1 .362-.872z"/></symbol>
<symbol id="icon-chevron-down-active" viewBox="0 0 32 32">
<path d="M15.13 7.746a1.218 1.218 0 0 1 .872-.362 1.234 1.234 0 0 1 .872.362l14.769 14.769a1.233 1.233 0 0 1-.871 2.103c-.327 0-.64-.13-.871-.361l-13.898-13.9-13.898 13.9a1.233 1.233 0 0 1-2.103-.871c0-.326.13-.64.361-.871L15.132 7.746z"/>
</symbol>
<symbol id="icon-disabled-heart" viewBox="0 0 32 32">
<path d="m16 6.496-1.434-1.474C11.2 1.562 5.028 2.756 2.8 7.106c-1.046 2.046-1.282 5 .628 8.77C5.268 19.506 9.096 23.854 16 28.59c6.904-4.736 10.73-9.084 12.572-12.714 1.91-3.772 1.676-6.724.628-8.77-2.228-4.35-8.4-5.546-11.766-2.086L16 6.496zM16 31c-30.666-20.264-9.442-36.08-.352-27.714.12.111.237.225.352.342a5.94 5.94 0 0 1 .352-.34C25.44-5.084 46.666 10.734 16 31z"/>
</symbol>
<symbol id="icon-fuel-pump" viewBox="0 0 32 32">
<path d="M6 5a.997.997 0 0 1 1-1h10a.997.997 0 0 1 1 1v10a.997.997 0 0 1-1 1H7a.997.997 0 0 1-1-1V5z"/><path d="M2 4a4.003 4.003 0 0 1 4-4h12a4.003 4.003 0 0 1 4 4v16a4.003 4.003 0 0 1 4 4v1a.997.997 0 0 0 1 1 .997.997 0 0 0 1-1v-9h-1a.997.997 0 0 1-1-1V8.75a.997.997 0 0 1 1-1h2.99c-.022-.952-.106-1.788-.402-2.444a1.944 1.944 0 0 0-.788-.916C28.432 4.17 27.872 4 27 4a.997.997 0 0 1-1-1 .997.997 0 0 1 1-1c1.128-.003 2.069.221 2.824.672.766.456 1.268 1.102 1.588 1.814.59 1.31.588 2.93.588 4.162v6.35a.988.988 0 0 1-.293.708.991.991 0 0 1-.708.293h-1v9a3.004 3.004 0 0 1-3 3 3.004 3.004 0 0 1-3-3v-1a2 2 0 0 0-2-2v8h1a.997.997 0 0 1 1 1 .997.997 0 0 1-1 1h-22a.997.997 0 0 1-1-1 .997.997 0 0 1 1-1h1v-26zm18 0a2 2 0 0 0-2-2H6a2 2 0 0 0-2 2v26h16V4z"/>
</symbol>
<symbol id="icon-gear" viewBox="0 0 32 32">
<path d="M16 9.508a6.49 6.49 0 1 0 6.492 6.49 6.495 6.495 0 0 0-1.901-4.591A6.495 6.495 0 0 0 16 9.506zM11.508 16A4.489 4.489 0 0 1 16 11.508 4.489 4.489 0 0 1 20.492 16 4.489 4.489 0 0 1 16 20.492 4.489 4.489 0 0 1 11.508 16z"/>
<path d="M19.592 2.686c-1.054-3.58-6.13-3.58-7.184 0l-.188.638a1.754 1.754 0 0 1-1.006 1.12 1.756 1.756 0 0 1-1.504-.079l-.584-.32c-3.28-1.784-6.866 1.804-5.08 5.082l.318.584a1.746 1.746 0 0 1-1.041 2.51l-.638.188c-3.58 1.054-3.58 6.13 0 7.184l.638.188a1.754 1.754 0 0 1 1.12 1.006 1.756 1.756 0 0 1-.079 1.504l-.32.584c-1.784 3.28 1.802 6.868 5.082 5.08l.584-.318a1.746 1.746 0 0 1 2.51 1.04l.188.638c1.054 3.58 6.13 3.58 7.184 0l.188-.638a1.754 1.754 0 0 1 1.006-1.12 1.74 1.74 0 0 1 1.504.08l.584.32c3.28 1.786 6.868-1.804 5.08-5.082l-.318-.584a1.746 1.746 0 0 1 1.04-2.51l.638-.188c3.58-1.054 3.58-6.13 0-7.184l-.638-.188a1.754 1.754 0 0 1-1.12-1.006 1.74 1.74 0 0 1 .08-1.504l.32-.584c1.786-3.28-1.804-6.866-5.082-5.08l-.584.318a1.746 1.746 0 0 1-2.51-1.041l-.188-.638zm-5.266.566c.492-1.67 2.856-1.67 3.348 0l.188.638a3.748 3.748 0 0 0 5.385 2.23l.582-.32c1.528-.83 3.2.84 2.368 2.37l-.318.584a3.74 3.74 0 0 0-.17 3.225 3.75 3.75 0 0 0 2.403 2.159l.636.188c1.67.492 1.67 2.856 0 3.348l-.638.188a3.748 3.748 0 0 0-2.23 5.385l.32.582c.83 1.528-.84 3.2-2.37 2.368l-.582-.318a3.76 3.76 0 0 0-3.227-.171 3.746 3.746 0 0 0-2.159 2.403l-.188.636c-.492 1.67-2.856 1.67-3.348 0l-.188-.638a3.737 3.737 0 0 0-2.16-2.401 3.752 3.752 0 0 0-3.225.171l-.584.32c-1.528.83-3.2-.84-2.368-2.37l.318-.582c.268-.491.423-1.036.452-1.594s-.066-1.116-.279-1.633a3.745 3.745 0 0 0-2.404-2.161l-.638-.188c-1.67-.492-1.67-2.856 0-3.348l.638-.188a3.742 3.742 0 0 0 2.229-5.382l-.32-.584c-.83-1.528.84-3.2 2.37-2.368l.584.318a3.756 3.756 0 0 0 3.225.171 3.748 3.748 0 0 0 2.16-2.401l.188-.638z"/>
</symbol>
<symbol id="icon-location" viewBox="0 0 32 32">
<path d="M23.532 17.88c-1.048 2.124-2.468 4.24-3.92 6.14a64.055 64.055 0 0 1-4.412 5.14 64.055 64.055 0 0 1-4.412-5.14c-1.452-1.9-2.872-4.016-3.92-6.14C5.808 15.734 5.2 13.724 5.2 12a10.001 10.001 0 0 1 20 0c0 1.724-.61 3.734-1.668 5.88zM15.2 32s12-11.372 12-20a12.003 12.003 0 0 0-12-12 11.998 11.998 0 0 0-12 12c0 8.628 12 20 12 20z"/>
<path d="M15.2 16a4.003 4.003 0 0 1-4-4 4.003 4.003 0 0 1 4-4 4.003 4.003 0 0 1 4 4 4.003 4.003 0 0 1-4 4zm0 2a5.996 5.996 0 0 0 6-6 5.996 5.996 0 0 0-6-6 5.996 5.996 0 0 0-6 6 5.996 5.996 0 0 0 6 6z"/>
</symbol>
</defs>
</svg>